<svg xmlns="http://www.w3.org/2000/svg" width="662.071" height="750" viewBox="0 0 662.071 750">
  <title>Asset 19</title>
  <g>
    <g opacity="0.7">
      <path d="M0,535.363V214.39a54.461,54.461,0,0,1,27.2-47.146L303.773,7.315a54.46,54.46,0,0,1,54.524,0L634.872,167.244a54.462,54.462,0,0,1,27.2,47.146V535.363a54.462,54.462,0,0,1-27.2,47.146L358.3,742.438a54.46,54.46,0,0,1-54.524,0L27.2,582.509A54.461,54.461,0,0,1,0,535.363Z" transform="translate(0 0)" fill="#bac4cc"/>
    </g>
    <path d="M7.279,562.562A54.422,54.422,0,0,0,27.2,582.509l101.48,58.68,175.1,101.25a54.463,54.463,0,0,0,54.523,0l181.858-105.16,94.717-54.77a54.46,54.46,0,0,0,27.2-47.146V214.39a54.426,54.426,0,0,0-7.279-27.2Z" transform="translate(0 0)" fill="#bac4cc" opacity="0.4"/>
    <path d="M331.035,375.123l-20.224,11.725L7.279,562.809A54.429,54.429,0,0,0,27.2,582.756l87.967,50.866L303.774,742.685a54.458,54.458,0,0,0,54.523,0L560.5,625.761l74.372-43a54.432,54.432,0,0,0,19.92-19.947Z" transform="translate(0 0)" fill="#bac4cc" opacity="0.9"/>
    <polygon points="303.773 742.438 303.774 742.439 128.678 641.189 303.773 742.438" fill="none"/>
    <polygon points="358.297 742.438 540.155 637.279 358.297 742.439 358.297 742.438" fill="none"/>
    <path d="M562.857,365.643V347.176H544.39V328.709H525.923v18.467H507.456V328.709H488.989v18.467H470.522v18.467h18.467V384.11H470.522v18.467h18.467v18.467h18.467V402.577h18.467v18.467H544.39V402.577h18.467V384.11H544.39V365.643Zm-55.4,18.467V365.643h18.467V384.11Z" transform="translate(0 0)" fill="#fefefe"/>
    <path d="M427.467,430.779a111.451,111.451,0,1,1,0-111.8l89.223-51.723A214.472,214.472,0,0,0,331.035,160.314c-118.5,0-214.563,96.063-214.563,214.563S212.535,589.44,331.035,589.44A214.473,214.473,0,0,0,516.69,482.5Z" transform="translate(0 0)" fill="#fefefe"/>
  </g>
</svg>
